<?xml version="1.0" encoding="UTF-8" standalone="no"?>
<svg
   xmlns:dc="http://purl.org/dc/elements/1.1/"
   xmlns:cc="http://creativecommons.org/ns#"
   xmlns:rdf="http://www.w3.org/1999/02/22-rdf-syntax-ns#"
   xmlns:svg="http://www.w3.org/2000/svg"
   xmlns="http://www.w3.org/2000/svg"
   xmlns:xlink="http://www.w3.org/1999/xlink"
   xmlns:sodipodi="http://sodipodi.sourceforge.net/DTD/sodipodi-0.dtd"
   xmlns:inkscape="http://www.inkscape.org/namespaces/inkscape"
   width="800"
   height="894.94763"
   viewBox="0 0 1024 1145.533"
   id="svg2"
   version="1.1"
   inkscape:version="0.91 r13725"
   sodipodi:docname="BirdOfParadise2.svg">
  <metadata
     id="metadata27">
    <rdf:RDF>
      <cc:Work
         rdf:about="">
        <dc:format>image/svg+xml</dc:format>
        <dc:type
           rdf:resource="http://purl.org/dc/dcmitype/StillImage" />
        <dc:title>Flag of Papua New Guinea</dc:title>
      </cc:Work>
    </rdf:RDF>
  </metadata>
  <defs
     id="defs25" />
  <sodipodi:namedview
     pagecolor="#ffffff"
     bordercolor="#666666"
     borderopacity="1"
     objecttolerance="10"
     gridtolerance="10"
     guidetolerance="10"
     inkscape:pageopacity="0"
     inkscape:pageshadow="2"
     inkscape:window-width="1600"
     inkscape:window-height="837"
     id="namedview23"
     showgrid="false"
     fit-margin-top="0"
     fit-margin-left="0"
     fit-margin-right="0"
     fit-margin-bottom="0"
     inkscape:zoom="0.74864716"
     inkscape:cx="400"
     inkscape:cy="447.47382"
     inkscape:window-x="-8"
     inkscape:window-y="-8"
     inkscape:window-maximized="1"
     inkscape:current-layer="svg2" />
  <title
     id="title4">Flag of Papua New Guinea</title>
  <path
     d="M 345.34649,419.30851 C 322.77097,448.46789 269.34811,389.97716 205.34948,388.64119 141.35084,387.30522 96.015808,449.97186 77.352208,471.30741 58.688598,492.64295 -1.3101217,604.63658 0.02182826,616.63633 1.3538283,628.63607 37.357038,583.30502 50.688768,575.30519 c 1.33196,15.99966 -14.6677,34.66728 -10.66779,39.99915 3.99992,5.3319 46.66301,-31.99932 61.330712,-33.33127 3.99992,10.66775 -7.999832,21.33152 -3.999912,37.33118 5.335892,5.33191 29.335372,-26.66741 45.335032,-33.33127 2.66395,11.99975 -14.6677,34.66724 -5.33588,49.33093 6.66783,1.33199 46.663,-45.33101 59.99872,-50.6669 13.33571,-5.33589 -6.66788,43.99906 0,47.99898 11.99974,-7.99983 49.33495,-50.66694 61.33469,-55.99881 11.99974,-5.33191 -1.33199,54.66681 3.99991,54.66681 14.66369,-10.66775 51.9989,-61.33067 55.99881,-69.3305 3.99992,-7.99983 -3.99991,77.33033 37.33119,122.66537 41.33113,45.33503 104.0018,97.32995 110.66566,97.32995 7.99983,-14.66771 -2.66395,-45.33106 3.99991,-43.99907 18.6636,19.99958 53.33084,49.33093 61.33067,49.33093 7.99983,0 -5.33588,-31.99932 5.33191,-31.99932 21.33554,19.99958 82.66619,98.66592 202.66369,134.66515 -7.9999,-22.66753 -25.3355,-42.66711 -26.6674,-53.33088 7.9998,1.33199 36.0032,14.66771 41.3351,13.33174 5.3318,-1.33598 -58.6668,-79.9983 -54.6669,-90.66609 14.6677,-1.33195 21.3356,7.99983 26.6675,1.33199 -6.6679,-10.66377 -62.6667,-73.33046 -62.6667,-87.99813 0,-14.6677 17.3356,2.66793 22.6675,0 5.3319,-2.66796 -21.3315,-58.66677 -15.9996,-65.33062 5.3318,-6.66386 63.9946,35.99923 78.6623,35.99923 14.6677,0 3.9999,-51.99889 10.6677,-54.66682 6.6679,-2.66796 56.0029,27.99941 66.6666,27.99941 10.6638,0 9.3318,-22.66754 13.3317,-19.99958 4,2.66793 119.9975,118.66546 79.9983,254.66256 -39.9991,97.33392 -119.9934,149.33279 -237.3269,106.66574 6.6639,10.66775 69.3305,62.66665 137.3291,43.99905 67.9985,-18.66761 150.6608,-71.99845 141.329,-205.32763 -9.3318,-133.32914 -53.3349,-151.99676 -59.9987,-171.99633 -6.6639,-19.99958 10.6717,5.3319 25.3354,10.66779 14.6637,5.33589 -2.668,-28.00342 -6.6679,-42.67109 -3.9999,-14.66771 43.9991,30.66733 55.9988,34.66724 11.9998,3.99991 -27.9994,-109.32965 -39.9991,-117.32948 -11.9998,-7.99983 11.9997,2.66394 19.9996,5.33187 7.9998,2.66796 -73.3345,-123.99736 -90.6661,-123.99736 -17.3316,0 14.6637,-6.66784 23.9995,-6.66784 9.3358,0 -93.326,-82.66625 -110.6616,-82.66625 -17.3357,0 37.3272,-21.33555 42.6631,-22.6675 9.3358,1.33195 -118.6615,-67.99855 -233.32709,1.33195 -6.66784,-5.32789 54.00289,-47.32699 55.99879,-65.32661 0.668,-4.66788 -19.9955,-14.66766 -21.3315,-19.99957 -1.336,-5.33187 31.9993,-21.33149 33.3313,-33.33123 -7.9999,-10.66775 -22.6675,-6.66788 -30.6674,-9.33178 -1.9959,-9.9998 28.0034,-34.66728 25.3355,-45.33105 -2,-5.99987 -24.0035,-7.999828 -29.3354,-3.99992 -5.3319,3.99992 14.0037,-27.999398 10.6678,-37.331198 -2.664,-3.99992 -13.3317,-1.33197 -23.99952,1.33197 C 601.34104,65.988112 642.67619,8.6533323 634.67629,0.65350227 626.67649,-7.3463277 514.67486,59.316252 473.34376,133.98266 c -41.33113,74.66634 -9.3278,134.66507 -14.66368,159.99655 -5.33589,25.33144 -12.00377,50.6669 -29.33538,50.6669 -17.33165,0 -57.32678,-26.66742 -70.66249,-39.99915 -13.33572,-13.3317 -15.99966,-22.6675 -34.66728,-27.9994 -18.66758,-5.33187 -61.33068,10.66779 -77.33033,11.99974 -15.99966,1.33199 -78.66635,-11.99974 -82.66626,-7.99983 -3.99992,3.99991 61.33071,27.9994 75.99838,35.99923 14.66771,7.99983 16.00368,18.66762 26.66745,25.33148 10.66377,6.66386 110.66164,35.99924 78.66232,77.33033 z m 390.6597,187.996 c 31.9993,31.99931 247.9947,175.99625 247.9947,351.99249 0,175.9963 -157.3327,170.6684 -202.6637,165.3325 C 832.00409,1167.2926 1024,1159.2927 1024,959.297 1024,783.30076 776.00529,607.30451 744.00599,591.30485 c -31.9993,-15.99966 -39.9992,-15.99966 -7.9998,15.99966 z"
     id="path10"
     style="fill:#000000;fill-opacity:1"
     inkscape:connector-curvature="0" />
  <g
     id="g12"
     style="fill:#ffffff"
     transform="translate(-388.71451,795.71166)">
    <path
       d="M 220.254,418.599 231.709,381.748 243.164,419 213,396.168 l 37.418,0 z"
       id="path14"
       inkscape:connector-curvature="0" />
    <path
       id="sl"
       d="m 192.418,178.496 -22.909,73.702 60.327,-44.862 -74.836,0 60.327,45.664 z"
       inkscape:connector-curvature="0" />
    <use
       xlink:href="#sl"
       x="-88"
       y="112.504"
       id="use17"
       width="100%"
       height="100%" />
    <use
       xlink:href="#sl"
       x="87.582001"
       y="104.504"
       id="use19"
       width="100%"
       height="100%" />
    <use
       xlink:href="#sl"
       y="264.504"
       id="use21"
       x="0"
       width="100%"
       height="100%" />
  </g>
</svg>
